<svg width="27" height="27" viewBox="0 0 27 27" fill="none" xmlns="http://www.w3.org/2000/svg">
<g clip-path="url(#clip0_20_735)">
<path d="M11.8755 19.1625C12.1165 19.408 12.7272 19.2313 12.9728 18.9903C13.2183 18.7493 13.0165 18.508 12.7755 18.2625L7.73959 12.2708C7.49859 12.0253 7.09315 12.0215 6.84761 12.2625C6.60207 12.5035 6.59827 12.9089 6.83926 13.1545L11.8755 19.1625Z" fill="black"/>
<path d="M12.0095 18.3624C11.7715 18.6298 11.7959 19.051 12.0632 19.289C12.3306 19.5271 12.7518 19.5027 12.9898 19.2353L22.0947 7.72708C22.3327 7.45973 22.3083 7.03856 22.041 6.80051C21.7736 6.56246 21.3524 6.58688 21.1144 6.85423L12.0095 18.3624Z" fill="black"/>
<path d="M13.6266 26.7469C6.30708 26.7469 0.358643 20.7984 0.358643 13.4789C0.358643 6.15938 6.30708 0.18985 13.6266 0.18985C20.9461 0.18985 26.8946 6.13829 26.8946 13.4578C26.8946 20.7774 20.9461 26.7469 13.6266 26.7469ZM13.6266 1.45547C7.00317 1.45547 1.62427 6.85548 1.62427 13.4789C1.62427 20.1024 7.00317 25.4813 13.6266 25.4813C20.25 25.4813 25.629 20.1024 25.629 13.4789C25.629 6.85548 20.25 1.45547 13.6266 1.45547Z" fill="black"/>
</g>
<defs>
<clipPath id="clip0_20_735">
<rect width="27" height="27" fill="white"/>
</clipPath>
</defs>
</svg>
