<svg width="26" height="26" viewBox="0 0 26 26" fill="none" xmlns="http://www.w3.org/2000/svg">
<g clip-path="url(#clip0_20_731)">
<path d="M8.42964 16.8391C8.18589 17.0828 8.18589 17.4891 8.42964 17.7328C8.67339 17.9766 9.07964 17.9766 9.32339 17.7328L18.1999 8.69375C18.4437 8.45 18.4437 8.04375 18.1999 7.8C17.9562 7.55625 17.5499 7.55625 17.3062 7.8L8.42964 16.8391Z" fill="black"/>
<path d="M17.3062 17.7328C17.5499 17.9766 17.9562 17.9766 18.1999 17.7328C18.4437 17.4891 18.4437 17.0828 18.1999 16.8391L9.32339 7.8C9.07964 7.55625 8.67339 7.55625 8.42964 7.8C8.18589 8.04375 8.18589 8.45 8.42964 8.69375L17.3062 17.7328Z" fill="black"/>
<path d="M13.1219 25.7562C6.07346 25.7562 0.345337 20.0281 0.345337 12.9797C0.345337 5.93124 6.07346 0.1828 13.1219 0.1828C20.1703 0.1828 25.8985 5.91092 25.8985 12.9594C25.8985 20.0078 20.1703 25.7562 13.1219 25.7562ZM13.1219 1.40155C6.74377 1.40155 1.56409 6.60155 1.56409 12.9797C1.56409 19.3578 6.74377 24.5375 13.1219 24.5375C19.5 24.5375 24.6797 19.3578 24.6797 12.9797C24.6797 6.60155 19.5 1.40155 13.1219 1.40155Z" fill="black"/>
</g>
<defs>
<clipPath id="clip0_20_731">
<rect width="26" height="26" fill="white"/>
</clipPath>
</defs>
</svg>
