<svg width="20" height="20" viewBox="0 0 20 20" fill="none" xmlns="http://www.w3.org/2000/svg">
<path d="M12.1267 10L19.5702 2.5565C19.8475 2.27352 20.002 1.89251 20 1.49629C19.998 1.10007 19.8397 0.720653 19.5595 0.440479C19.2793 0.160306 18.8999 0.00202037 18.5037 1.9207e-05C18.1075 -0.00198195 17.7265 0.152463 17.4435 0.429792L10 7.87329L2.5565 0.429792C2.27352 0.152463 1.89251 -0.00198195 1.49629 1.9207e-05C1.10007 0.00202037 0.720653 0.160306 0.440479 0.440479C0.160306 0.720653 0.00202037 1.10007 1.9207e-05 1.49629C-0.00198195 1.89251 0.152463 2.27352 0.429792 2.5565L7.87329 10L0.429792 17.4435C0.152463 17.7265 -0.00198195 18.1075 1.9207e-05 18.5037C0.00202037 18.8999 0.160306 19.2793 0.440479 19.5595C0.720653 19.8397 1.10007 19.998 1.49629 20C1.89251 20.002 2.27352 19.8475 2.5565 19.5702L10 12.1267L17.4435 19.5702C17.7265 19.8475 18.1075 20.002 18.5037 20C18.8999 19.998 19.2793 19.8397 19.5595 19.5595C19.8397 19.2793 19.998 18.8999 20 18.5037C20.002 18.1075 19.8475 17.7265 19.5702 17.4435L12.1267 10Z" fill="black"/>
</svg>
