<svg width="48" height="54" viewBox="0 0 48 54" fill="none" xmlns="http://www.w3.org/2000/svg">
<path fill-rule="evenodd" clip-rule="evenodd" d="M6 0C4.4087 0 2.88258 0.632141 1.75736 1.75736C0.632141 2.88258 0 4.4087 0 6V48C0 49.5913 0.632141 51.1174 1.75736 52.2426C2.88258 53.3679 4.4087 54 6 54H42C43.5913 54 45.1174 53.3679 46.2426 52.2426C47.3679 51.1174 48 49.5913 48 48V19.242C47.9997 17.6508 47.3673 16.125 46.242 15L33 1.758C31.875 0.632704 30.3492 0.000339824 28.758 0H6ZM6 6H28.758L42 19.242V48H6V6ZM12 12C11.2044 12 10.4413 12.3161 9.87868 12.8787C9.31607 13.4413 9 14.2044 9 15C9 15.7956 9.31607 16.5587 9.87868 17.1213C10.4413 17.6839 11.2044 18 12 18H27C27.7956 18 28.5587 17.6839 29.1213 17.1213C29.6839 16.5587 30 15.7956 30 15C30 14.2044 29.6839 13.4413 29.1213 12.8787C28.5587 12.3161 27.7956 12 27 12H12ZM9 27C9 26.2044 9.31607 25.4413 9.87868 24.8787C10.4413 24.3161 11.2044 24 12 24H36C36.7956 24 37.5587 24.3161 38.1213 24.8787C38.6839 25.4413 39 26.2044 39 27C39 27.7956 38.6839 28.5587 38.1213 29.1213C37.5587 29.6839 36.7956 30 36 30H12C11.2044 30 10.4413 29.6839 9.87868 29.1213C9.31607 28.5587 9 27.7956 9 27ZM12 36C11.2044 36 10.4413 36.3161 9.87868 36.8787C9.31607 37.4413 9 38.2044 9 39C9 39.7956 9.31607 40.5587 9.87868 41.1213C10.4413 41.6839 11.2044 42 12 42H36C36.7956 42 37.5587 41.6839 38.1213 41.1213C38.6839 40.5587 39 39.7956 39 39C39 38.2044 38.6839 37.4413 38.1213 36.8787C37.5587 36.3161 36.7956 36 36 36H12Z" fill="black"/>
</svg>
