<svg width="187" height="125" viewBox="0 0 187 125" fill="none" xmlns="http://www.w3.org/2000/svg">
<path d="M183.883 37.5665H171.417C170.17 37.5665 168.923 38.5015 168.612 39.7481L159.885 65.6165H151.47L143.055 51.5915C142.432 50.6565 141.497 50.0331 140.25 50.0331H127.784V40.6831C127.784 38.8131 126.537 37.5665 124.667 37.5665H102.85V25.1H112.2C114.07 25.1 115.317 23.8534 115.317 21.9834V3.28344C115.317 1.41344 114.07 0.166901 112.2 0.166901H56.1C54.23 0.166901 52.9835 1.41344 52.9835 3.28344V21.9834C52.9835 23.8534 54.23 25.1 56.1 25.1H65.45V37.5665H40.5165C39.5815 37.5665 38.9581 37.8781 38.335 38.5015C37.7119 39.125 37.4 39.7481 37.4 40.6831V50.0331H15.5835C13.7135 50.0331 12.4669 51.2796 12.4669 53.1496V71.8496H6.23345V62.5C6.23345 60.63 4.98691 59.3834 3.11691 59.3834C1.24691 59.3834 0 60.63 0 62.5V87.4334C0 89.3034 1.24654 90.55 3.11654 90.55C4.98654 90.55 6.23309 89.3034 6.23309 87.4334V78.0834H12.4665V103.017C12.4665 104.887 13.7131 106.133 15.5831 106.133H38.9581L50.4896 123.587C51.1131 124.21 52.0481 124.833 52.9831 124.833H140.25C141.497 124.833 142.432 124.21 143.055 122.963L151.47 106.133H160.197L168.612 122.963C169.235 124.21 170.17 124.833 171.417 124.833H183.883C185.753 124.833 187 123.587 187 121.717V40.6834C187 38.8134 185.753 37.5665 183.883 37.5665ZM59.2165 6.39999H109.083V18.8665H99.7331H68.5665H59.2165V6.39999ZM71.6835 25.1H96.6169V37.5665H71.6835V25.1ZM18.7 99.9V56.2665H37.4V99.9H18.7ZM138.068 118.6H54.5415L43.6331 102.09V53.15V43.8H68.5665H99.7331H121.55V53.15C121.55 55.02 122.797 56.2665 124.667 56.2665H138.38L146.483 69.7722V101.77L138.068 118.6ZM152.717 99.9V71.85H158.95V99.9H152.717ZM180.767 118.6H173.287L165.183 102.972V68.7444L173.598 43.8H180.767V118.6Z" fill="black"/>
</svg>
