<svg width="93" height="102" viewBox="0 0 93 102" fill="none" xmlns="http://www.w3.org/2000/svg">
<path d="M88.3758 101.413L92.852 96.9365L77.7966 81.8811C80.4401 78.318 82.006 73.9098 82.006 69.1423C82.006 60.5617 76.9351 53.1447 69.6331 49.7268V22.9551L46.6783 0H0V93.8994H69.6333V88.5581C70.939 87.9468 72.1738 87.2085 73.3207 86.3575L88.3758 101.413ZM48.5323 10.8065L58.8268 21.101H48.5323V10.8065ZM6.3303 6.3303H42.202V27.4313H63.303V47.8902C62.4117 47.7767 61.5033 47.7182 60.5818 47.7182C53.9989 47.7182 48.101 50.7034 44.1677 55.3901H13.7156V61.7204H40.4835C39.6264 64.0341 39.1573 66.5344 39.1573 69.1425C39.1573 69.4839 39.1662 69.8232 39.182 70.1608H13.7156V76.4911H40.4559C42.164 81.1546 45.4503 85.0632 49.6635 87.5691H6.3303V6.3303ZM60.5818 84.2368C52.2589 84.2368 45.4876 77.4655 45.4876 69.1427C45.4876 60.8198 52.2587 54.0485 60.5818 54.0485C68.9049 54.0485 75.676 60.8196 75.676 69.1427C75.676 77.4657 68.9047 84.2368 60.5818 84.2368Z" fill="black"/>
</svg>
