<svg width="50" height="50" viewBox="0 0 50 50" fill="none" xmlns="http://www.w3.org/2000/svg">
<path d="M8.92857 5.14288H24.8571V8H8.92857H8.86481L8.80309 8.016C7.77464 8.28264 6.9545 8.69442 6.25998 9.399C5.57598 10.0929 5.04596 11.0388 4.53576 12.3143L4.5 12.4037V12.5V38.5V38.5495L4.50971 38.5981C4.75797 39.8394 5.02565 40.8454 5.69085 41.5845C6.36905 42.338 7.38443 42.7376 8.9178 42.9932L8.95862 43H9H21H33.5C34.972 43 36.0465 42.7098 36.7108 41.8851C37.3487 41.0932 37.5 39.9286 37.5 38.5V26.5715H41.2857V38.9095C41.2431 39.4693 41.2207 40.0128 41.1996 40.5272L41.1969 40.594C41.1745 41.1377 41.1525 41.646 41.1092 42.1258C41.022 43.0898 40.852 43.8796 40.4653 44.5177C39.7214 45.745 38.0153 46.6429 33.5714 46.6429H8.92857C4.919 46.6429 1.57143 43.2953 1.57143 39.2857V12.5C1.57143 8.49045 4.919 5.14288 8.92857 5.14288Z" fill="black" stroke="black"/>
<path d="M42.8571 4.64286L48.2143 11.4286C48.5714 11.7857 48.2143 12.1429 47.8571 12.5L30.7143 25.7143C30.3571 26.0714 22.8571 25.3571 22.8571 25.3571C22.8571 25.3571 24.2857 18.2143 24.6429 17.8571L41.7857 4.64286C42.1429 4.28571 42.5 4.28571 42.8571 4.64286Z" fill="black"/>
<path d="M29.6429 27.1429C28.5714 27.1429 26.4286 27.1428 22.8571 26.7857H21.4286V25C22.8571 17.1429 23.2143 17.1429 23.5714 16.7857L40.7143 3.57142C41.7857 2.85714 42.8571 2.85714 43.5714 3.92856L48.9286 10.7143C49.6429 11.4286 49.2857 12.8571 48.5714 13.5714L31.4286 26.7857C31.0714 27.1428 31.0714 27.1429 29.6429 27.1429ZM24.2857 24.2857C26.7857 24.2857 28.9286 24.6429 30 24.6429L46.4286 11.7857L42.1429 6.07142L25.7143 18.9286C25.3571 19.6429 25 21.7857 24.2857 24.2857Z" fill="black"/>
</svg>
