<svg width="46" height="51" viewBox="0 0 46 51" fill="none" xmlns="http://www.w3.org/2000/svg">
<path d="M22.7711 45.6968C22.7711 46.3599 23.0345 46.9958 23.5034 47.4646C23.9722 47.9334 24.6081 48.1968 25.2711 48.1968H40.2711C40.9342 48.1968 41.57 47.9334 42.0389 47.4646C42.5077 46.9958 42.7711 46.3599 42.7711 45.6968V20.6968C41.445 20.6968 40.1733 20.17 39.2356 19.2324C38.2979 18.2947 37.7711 17.0229 37.7711 15.6968V5.69683C37.7711 5.03379 37.5077 4.3979 37.0389 3.92906C36.57 3.46022 35.9342 3.19683 35.2711 3.19683H29.8711C29.2863 3.18503 28.7158 3.37871 28.259 3.74415C27.8022 4.10958 27.488 4.62364 27.3711 5.19683L22.7711 28.1968M22.7711 45.6968V28.1968M22.7711 45.6968C22.7711 46.3599 22.5077 46.9958 22.0389 47.4646C21.57 47.9334 20.9342 48.1968 20.2711 48.1968H5.27112C4.60808 48.1968 3.97219 47.9334 3.50335 47.4646C3.03451 46.9958 2.77112 46.3599 2.77112 45.6968V20.6968C4.0972 20.6968 5.36897 20.17 6.30665 19.2324C7.24433 18.2947 7.77112 17.0229 7.77112 15.6968V5.69683C7.77112 5.03379 8.03451 4.3979 8.50335 3.92906C8.97219 3.46022 9.60808 3.19683 10.2711 3.19683H15.6711C16.256 3.18503 16.8265 3.37871 17.2833 3.74415C17.7401 4.10958 18.0542 4.62364 18.1711 5.19683L22.7711 28.1968M12.7711 28.1968H32.7711M12.7711 38.1968H32.7711" stroke="black" stroke-width="5" stroke-linecap="round" stroke-linejoin="round"/>
</svg>
