<svg width="49" height="48" viewBox="0 0 49 48" fill="none" xmlns="http://www.w3.org/2000/svg">
<path d="M47.701 8.09583C49.4992 12.4327 48.6423 17.6096 45.1154 21.1365C41.2323 25.0196 35.3635 25.6271 30.8017 23.0527L27.5035 26.6546L29.8567 29.0171L31.2629 27.6108C31.981 26.8908 33.1473 26.8908 33.8654 27.6108L45.2692 39.1308C45.9892 39.849 45.9892 41.0152 45.2692 41.7333L40.0642 46.9383C39.346 47.6583 38.1798 47.6583 37.4617 46.9383L26.0579 35.4183C25.3379 34.7002 25.3379 33.534 26.0579 32.8158L27.3423 31.5315L25.0998 29.2833L9.32915 46.5127C7.89103 47.9508 5.5604 47.9508 4.12415 46.5127L2.8229 45.2115C1.38478 43.7733 1.38478 41.4427 2.8229 40.0065L20.7892 24.9596L8.85665 12.9952L5.0879 12.9933L0.726654 5.98083L4.23665 2.4652L11.4085 6.85458L11.4554 10.5446L23.5267 22.6627L27.0385 19.7227C23.6054 15.0427 23.9635 8.4502 28.1935 4.2202C31.7035 0.710201 36.8523 -0.161674 41.1779 1.6027L33.4454 9.22833L39.9535 15.7364L47.701 8.09583ZM7.13915 41.8421C6.42103 41.124 5.25665 41.124 4.53665 41.8421C3.81665 42.5621 3.81665 43.7265 4.53665 44.4465C5.25665 45.1646 6.42103 45.1646 7.13915 44.4465C7.85915 43.7246 7.85915 42.5602 7.13915 41.8421Z" fill="black"/>
</svg>
