<svg width="58" height="60" viewBox="0 0 58 60" fill="none" xmlns="http://www.w3.org/2000/svg">
<path d="M31.2658 12.934C31.1892 11.5027 29.7264 11.7462 28.2991 11.7462C29.3534 12.027 30.3509 12.4176 31.2658 12.934Z" fill="black"/>
<path d="M16.0081 9.34692C10.4673 9.34692 7.91688 16.3602 12.3463 19.8875C13.8563 15.8556 16.8622 12.9606 20.8028 11.8179C19.7248 10.3277 17.9832 9.34692 16.0081 9.34692Z" fill="black"/>
<path d="M4.56137 18.7899C4.78717 19.5145 5.07974 20.2096 5.4273 20.8682L3.60719 22.6893C3.1184 23.1781 3.1184 23.9714 3.60719 24.4612L6.81539 27.6704C7.04903 27.9041 7.36916 28.0356 7.70281 28.0356C8.0328 28.0356 8.35077 27.9041 8.58847 27.6704L10.4066 25.8493C10.6794 25.9937 10.9818 26.0822 11.2644 26.2067C11.2644 26.186 11.2624 26.1645 11.2624 26.1438C11.2624 24.6555 11.4333 23.2517 11.7376 21.9333C9.54252 20.5206 8.07781 18.0683 8.07781 15.2685C8.07781 10.895 11.6355 7.33632 16.008 7.33632C18.9687 7.33632 21.5251 8.98461 22.8896 11.3927C24.3465 11.2121 25.715 11.2121 27.3623 11.5234C27.1504 10.8823 26.9011 10.255 26.5888 9.66696L28.4089 7.84495C28.6463 7.6103 28.7778 7.29118 28.7778 6.95943C28.7778 6.62754 28.6463 6.30856 28.4089 6.0739L25.2025 2.86671C24.9572 2.62131 24.6371 2.49955 24.3171 2.49955C23.9969 2.49955 23.6769 2.62131 23.4334 2.86671L21.6075 4.68871C20.9479 4.33926 20.2548 4.0467 19.5285 3.82582V1.25167C19.5285 0.560598 18.9708 0 18.2777 0H13.7403C13.0511 0 12.4875 0.560598 12.4875 1.25167V3.82569C11.763 4.04657 11.0698 4.33913 10.4082 4.68859L8.58847 2.86861C8.34293 2.6232 8.02294 2.50145 7.70281 2.50145C7.38281 2.50145 7.06092 2.6232 6.81741 2.86759L3.60719 6.07478C3.37354 6.31045 3.24205 6.62843 3.24205 6.96132C3.24205 7.29409 3.37354 7.61219 3.60719 7.84685L5.4273 9.66784C5.07961 10.3276 4.78717 11.0217 4.56541 11.7461H1.99329C1.30019 11.7461 0.740479 12.3076 0.740479 12.9997V17.5372C0.740479 18.2273 1.30019 18.7899 1.99329 18.7899H4.56137Z" fill="black"/>
<path d="M43.8669 43.0694C45.8736 41.9688 47.2519 39.8622 47.2519 37.4175C47.2519 33.85 44.3481 30.9482 40.7806 30.9482C39.526 30.9482 38.3635 31.3232 37.3701 31.9436C36.7752 34.3114 35.8386 36.5763 34.6135 38.5436C38.0866 39.1965 41.2733 40.778 43.8669 43.0694Z" fill="black"/>
<path d="M57.2574 34.9694C57.2574 34.2223 56.6507 33.6175 55.9065 33.6175H53.1304C52.8907 32.835 52.5727 32.085 52.1957 31.3733L54.161 29.4081C54.4164 29.1547 54.5576 28.8112 54.5576 28.4529C54.5576 28.0944 54.4162 27.7508 54.161 27.4967L50.7014 24.0361C50.4384 23.7719 50.0909 23.6394 49.7455 23.6394C49.3998 23.6394 49.0543 23.7719 48.7913 24.0361L46.822 26.0024C46.1111 25.6254 45.3631 25.3094 44.5777 25.0707V22.2945C44.5777 21.5485 43.9749 20.9436 43.2288 20.9436H38.3341C38.0062 20.9436 37.7175 21.0751 37.4821 21.2695C37.8943 22.7734 38.1201 24.4042 38.1201 26.1437C38.1201 27.2481 38.0339 28.3694 37.8728 29.4844C38.7837 29.1486 39.7536 28.9377 40.7806 28.9377C45.4573 28.9377 49.2624 32.7419 49.2624 37.4175C49.2624 40.406 47.7016 43.0251 45.3592 44.536C47.0635 46.4052 48.4182 48.6228 49.2998 51.1074C49.4449 51.1575 49.5962 51.1939 49.7474 51.1939C50.0929 51.1939 50.4386 51.0624 50.7036 50.7981L54.1651 47.3376C54.4185 47.0842 54.5578 46.7407 54.5578 46.3824C54.5578 46.0241 54.4185 45.6806 54.1651 45.4262L52.1958 43.4599C52.5729 42.7493 52.8908 41.999 53.1306 41.2158H55.9066C56.2639 41.2158 56.6115 41.0744 56.8628 40.819C57.1162 40.5667 57.2596 40.2223 57.2596 39.8638L57.2574 34.9694Z" fill="black"/>
<path d="M46.5431 52.3307C44.4441 46.1548 38.8977 41.907 32.4949 41.3289C30.3509 43.5993 27.6964 45.0398 24.6902 45.0398C21.6863 45.0398 19.0297 43.5994 16.8877 41.3289C10.4812 41.907 4.9345 46.1548 2.83548 52.3317L1.67522 55.747C1.34333 56.7297 1.50226 57.8126 2.10711 58.6558C2.71183 59.4992 3.68573 59.9999 4.72234 59.9999H44.6561C45.6948 59.9999 46.6687 59.4992 47.2735 58.6558C47.8762 57.8126 48.0373 56.7297 47.7034 55.747L46.5431 52.3307Z" fill="black"/>
<path d="M14.2783 26.1438C14.2783 33.8041 18.9414 42.0239 24.6902 42.0239C30.4411 42.0239 35.1041 33.8041 35.1041 26.1438C35.1042 10.2647 14.2783 10.2332 14.2783 26.1438Z" fill="black"/>
</svg>
