<svg width="43" height="41" viewBox="0 0 43 41" fill="none" xmlns="http://www.w3.org/2000/svg">
<path d="M21.5049 27.675C19.4531 27.675 17.4854 26.9191 16.0346 25.5735C14.5838 24.2279 13.7688 22.4029 13.7688 20.5C13.7688 18.5971 14.5838 16.7721 16.0346 15.4265C17.4854 14.0809 19.4531 13.325 21.5049 13.325C23.5566 13.325 25.5243 14.0809 26.9751 15.4265C28.4259 16.7721 29.241 18.5971 29.241 20.5C29.241 22.4029 28.4259 24.2279 26.9751 25.5735C25.5243 26.9191 23.5566 27.675 21.5049 27.675ZM37.9275 22.4885C38.0159 21.8325 38.0822 21.1765 38.0822 20.5C38.0822 19.8235 38.0159 19.147 37.9275 18.45L42.5913 15.1085C43.0112 14.801 43.1218 14.2475 42.8565 13.7965L38.4359 6.7035C38.1707 6.2525 37.5739 6.068 37.0876 6.2525L31.5839 8.3025C30.4345 7.503 29.241 6.806 27.8485 6.2935L27.0307 0.861C26.9423 0.369 26.4781 0 25.9255 0H17.0843C16.5317 0 16.0675 0.369 15.9791 0.861L15.1613 6.2935C13.7688 6.806 12.5752 7.503 11.4258 8.3025L5.92216 6.2525C5.4359 6.068 4.83911 6.2525 4.57387 6.7035L0.153245 13.7965C-0.134096 14.2475 -0.00147716 14.801 0.418483 15.1085L5.08225 18.45C4.99383 19.147 4.92752 19.8235 4.92752 20.5C4.92752 21.1765 4.99383 21.8325 5.08225 22.4885L0.418483 25.8915C-0.00147716 26.199 -0.134096 26.7525 0.153245 27.2035L4.57387 34.2965C4.83911 34.7475 5.4359 34.9115 5.92216 34.7475L11.4258 32.677C12.5752 33.497 13.7688 34.194 15.1613 34.7065L15.9791 40.139C16.0675 40.631 16.5317 41 17.0843 41H25.9255C26.4781 41 26.9423 40.631 27.0307 40.139L27.8485 34.7065C29.241 34.1735 30.4345 33.497 31.5839 32.677L37.0876 34.7475C37.5739 34.9115 38.1707 34.7475 38.4359 34.2965L42.8565 27.2035C43.1218 26.7525 43.0112 26.199 42.5913 25.8915L37.9275 22.4885Z" fill="black"/>
</svg>
