<svg width="44" height="51" viewBox="0 0 44 51" fill="none" xmlns="http://www.w3.org/2000/svg">
<g clip-path="url(#clip0_140_40)">
<path d="M3.66667 6.375H40.3333C42.2583 6.375 44 8.39375 44 10.625V40.375C44 42.6063 42.2583 44.625 40.3333 44.625H3.66667C1.74167 44.625 0 42.6063 0 40.375V10.625C0 8.39375 1.74167 6.375 3.66667 6.375ZM25.6667 12.75V14.875H40.3333V12.75H25.6667ZM25.6667 17V19.125H39.4167H40.3333V17H25.6667ZM25.6667 21.25V23.375H38.5V21.25H25.6667ZM14.6667 29.5588C11 29.5588 3.66667 31.875 3.66667 36.125V38.25H25.6667V36.125C25.6667 31.875 18.3333 29.5588 14.6667 29.5588ZM14.6667 12.75C13.208 12.75 11.809 13.4216 10.7776 14.6172C9.74613 15.8127 9.16667 17.4342 9.16667 19.125C9.16667 20.8158 9.74613 22.4373 10.7776 23.6328C11.809 24.8284 13.208 25.5 14.6667 25.5C16.1254 25.5 17.5243 24.8284 18.5558 23.6328C19.5872 22.4373 20.1667 20.8158 20.1667 19.125C20.1667 17.4342 19.5872 15.8127 18.5558 14.6172C17.5243 13.4216 16.1254 12.75 14.6667 12.75Z" fill="black"/>
</g>
<defs>
<clipPath id="clip0_140_40">
<rect width="44" height="51" fill="white"/>
</clipPath>
</defs>
</svg>
