<svg width="51" height="51" viewBox="0 0 51 51" fill="none" xmlns="http://www.w3.org/2000/svg">
<path d="M25.1709 50.0679C11.3634 50.0679 0.170898 38.8754 0.170898 25.0679C0.170898 11.2604 11.3634 0.0678711 25.1709 0.0678711C38.9784 0.0678711 50.1709 11.2604 50.1709 25.0679C50.1709 38.8754 38.9784 50.0679 25.1709 50.0679ZM14.9709 18.1529V18.4079C14.9709 18.7394 15.1026 19.0573 15.337 19.2918C15.5714 19.5262 15.8894 19.6579 16.2209 19.6579H18.7134C18.8772 19.6579 19.0394 19.6256 19.1908 19.5629C19.3421 19.5002 19.4797 19.4083 19.5955 19.2925C19.7114 19.1766 19.8032 19.0391 19.8659 18.8878C19.9286 18.7364 19.9609 18.5742 19.9609 18.4104C19.9609 15.1854 22.4559 13.4629 25.8109 13.4629C29.0809 13.4629 31.2309 15.1854 31.2309 17.6379C31.2309 19.9579 30.0259 21.0354 27.0159 22.4129L26.1559 22.7979C23.6184 23.9179 22.6709 25.5929 22.6709 28.5204V28.8179C22.6709 29.1494 22.8026 29.4673 23.037 29.7018C23.2714 29.9362 23.5894 30.0679 23.9209 30.0679H26.4134C26.5772 30.0679 26.7394 30.0356 26.8908 29.9729C27.0421 29.9102 27.1797 29.8183 27.2955 29.7025C27.4114 29.5866 27.5032 29.4491 27.5659 29.2978C27.6286 29.1464 27.6609 28.9842 27.6609 28.8204C27.6609 27.5304 28.0059 27.0129 29.0359 26.5404L29.8984 26.1529C33.5109 24.5179 36.2209 22.3679 36.2209 17.6779V17.4204C36.2209 12.4754 31.9209 8.81787 25.8109 8.81787C19.6159 8.81787 14.9709 12.3879 14.9709 18.1529ZM21.4209 37.5454C21.4209 39.7129 23.0684 41.3179 25.1484 41.3179C27.2734 41.3179 28.9209 39.7129 28.9209 37.5454C28.9209 35.3779 27.2734 33.8179 25.1484 33.8179C23.0684 33.8179 21.4209 35.3779 21.4209 37.5454Z" fill="black"/>
</svg>
