<svg width="36" height="35" viewBox="0 0 36 35" fill="none" xmlns="http://www.w3.org/2000/svg">
<path d="M30.7246 5.12888C27.395 1.75175 22.7875 -0.0680459 18 0.00194635C13.2125 -0.0680459 8.62304 1.75175 5.29341 5.12888C1.8018 8.36602 -0.06999 12.8455 0.00200195 17.5C-0.06999 22.1545 1.8018 26.6165 5.27542 29.8536C8.60505 33.2482 13.2125 35.068 18 34.9981C22.7875 35.068 27.377 33.2482 30.7066 29.8711C34.1982 26.634 36.07 22.1545 35.998 17.5C36.07 12.8455 34.1982 8.36602 30.7246 5.12888ZM26.999 17.5V27.9988H20.6997V19.2498H15.3003V27.9988H9.001V17.5H5.4014L18 5.25136L31.4985 17.5H26.999Z" fill="black"/>
</svg>
