<svg width="60" height="60" viewBox="0 0 60 60" fill="none" xmlns="http://www.w3.org/2000/svg">
<g clip-path="url(#clip0_641_8)">
<path d="M37.8581 51.9397H7.03341V8.06137H37.8594C38.5426 8.06137 39.0972 7.50682 39.0972 6.82353V2.26518C39.0972 1.5819 38.5426 1.02734 37.8594 1.02734H1.23784C0.554553 1.02734 0 1.5819 0 2.26518V57.7347C0 58.418 0.554553 58.9725 1.23784 58.9725H37.8581C38.542 58.9725 39.096 58.418 39.096 57.7347V53.1776C39.096 52.493 38.5426 51.9397 37.8581 51.9397Z" fill="black"/>
<path d="M59.6361 29.1252L42.9735 12.4639C42.5093 11.999 41.6874 11.9997 41.2232 12.4639L37.2701 16.4175C36.7868 16.9009 36.7868 17.6844 37.2701 18.1678L44.7962 25.6951H12.2156C11.5323 25.6951 10.9778 26.2497 10.9778 26.933V33.0677C10.9778 33.751 11.5323 34.3056 12.2156 34.3056H44.7981L37.272 41.8329C36.7886 42.3162 36.7886 43.0998 37.272 43.5832L41.225 47.5375C41.4571 47.7695 41.7728 47.9001 42.1002 47.9001C42.4288 47.9001 42.7433 47.7695 42.9753 47.5375L59.6379 30.8761C59.87 30.644 60.0006 30.3284 60.0006 30.001C60 29.6717 59.8682 29.3573 59.6361 29.1252Z" fill="black"/>
</g>
<defs>
<clipPath id="clip0_641_8">
<rect width="60" height="60" fill="white"/>
</clipPath>
</defs>
</svg>
