<svg width="55" height="51" viewBox="0 0 55 51" fill="none" xmlns="http://www.w3.org/2000/svg">
<path d="M48.0333 34.9563C48.0562 34.6375 48.125 34.3188 48.125 34V35.0625L48.0333 34.9563ZM25.2083 34C25.2083 35.5087 25.5521 36.9538 26.1708 38.25H13.75V40.375C13.75 41.5438 12.7188 42.5 11.4583 42.5H9.16667C7.90625 42.5 6.875 41.5438 6.875 40.375V23.375L11.6417 10.625C12.1 9.3925 13.3833 8.5 14.8958 8.5H40.1042C41.6167 8.5 42.9 9.3925 43.3583 10.625L48.125 23.375V34C48.125 28.135 42.9917 23.375 36.6667 23.375C30.3417 23.375 25.2083 28.135 25.2083 34ZM18.3333 28.6875C18.3333 26.9237 16.7979 25.5 14.8958 25.5C12.9938 25.5 11.4583 26.9237 11.4583 28.6875C11.4583 30.4513 12.9938 31.875 14.8958 31.875C16.7979 31.875 18.3333 30.4513 18.3333 28.6875ZM43.5417 21.25L40.1042 11.6875H14.8958L11.4583 21.25H43.5417ZM52.4104 45.0288L42.9917 36.295C43.9313 34.085 43.4042 31.4925 41.4333 29.6863C39.3708 27.7525 36.2771 27.37 33.7792 28.4325L38.225 32.555L35.1313 35.445L30.5708 31.3012C29.3333 33.6175 29.9063 36.4862 31.9229 38.42C33.8938 40.2475 36.6667 40.715 39.0729 39.865L48.4917 48.5775C48.9042 48.9813 49.5229 48.9813 49.9354 48.5775L52.3188 46.3887C52.8229 46.0062 52.8229 45.3263 52.4104 45.0288Z" fill="black"/>
</svg>
