<svg width="44" height="44" viewBox="0 0 44 44" fill="none" xmlns="http://www.w3.org/2000/svg">
<path d="M38.5 20.3682V9.16658C38.5 7.14992 36.8683 5.49992 34.8333 5.49992H27.17C26.4 3.37325 24.3833 1.83325 22 1.83325C19.6167 1.83325 17.6 3.37325 16.83 5.49992H9.16667C7.15 5.49992 5.5 7.14992 5.5 9.16658V34.8333C5.5 36.8683 7.15 38.4999 9.16667 38.4999H20.3683C22.6783 40.7733 25.8317 42.1666 29.3333 42.1666C36.4283 42.1666 42.1667 36.4282 42.1667 29.3333C42.1667 25.8316 40.7733 22.6783 38.5 20.3682ZM22 5.49992C23.0083 5.49992 23.8333 6.32492 23.8333 7.33325C23.8333 8.34159 23.0083 9.16658 22 9.16658C20.9917 9.16658 20.1667 8.34159 20.1667 7.33325C20.1667 6.32492 20.9917 5.49992 22 5.49992ZM11 12.8333H33V16.4999H11V12.8333ZM16.6467 31.1666H11V27.4999H16.6467C16.555 28.1049 16.5 28.7099 16.5 29.3333C16.5 29.9566 16.555 30.5616 16.6467 31.1666ZM11 23.8333V20.1666H20.3683C19.25 21.2116 18.4067 22.4583 17.7467 23.8333H11ZM29.3333 38.4999C24.2733 38.4999 20.1667 34.3932 20.1667 29.3333C20.1667 24.2733 24.2733 20.1666 29.3333 20.1666C34.3933 20.1666 38.5 24.2733 38.5 29.3333C38.5 34.3932 34.3933 38.4999 29.3333 38.4999ZM30.25 29.7916L35.4933 32.8899L34.1183 35.1266L27.5 31.1666V21.9999H30.25V29.7916Z" fill="black"/>
</svg>
