<svg width="51" height="48" viewBox="0 0 51 48" fill="none" xmlns="http://www.w3.org/2000/svg">
<path d="M45.25 17.0535C40.725 17.0535 38.875 13.8535 41.125 9.9285C42.425 7.6535 41.65 4.7535 39.375 3.4535L35.05 0.978503C33.075 -0.196497 30.525 0.503503 29.35 2.4785L29.075 2.9535C26.825 6.8785 23.125 6.8785 20.85 2.9535L20.575 2.4785C19.45 0.503503 16.9 -0.196497 14.925 0.978503L10.6 3.4535C8.325 4.7535 7.55 7.6785 8.85 9.9535C11.125 13.8535 9.275 17.0535 4.75 17.0535C2.15 17.0535 0 19.1785 0 21.8035V26.2035C0 28.8035 2.125 30.9535 4.75 30.9535C9.275 30.9535 11.125 34.1535 8.85 38.0785C7.55 40.3535 8.325 43.2535 10.6 44.5535L14.925 47.0285C16.9 48.2035 19.45 47.5035 20.625 45.5285L20.9 45.0535C23.15 41.1285 26.85 41.1285 29.125 45.0535L29.4 45.5285C30.575 47.5035 33.125 48.2035 35.1 47.0285L39.425 44.5535C41.7 43.2535 42.475 40.3285 41.175 38.0785C38.9 34.1535 40.75 30.9535 45.275 30.9535C47.875 30.9535 50.025 28.8285 50.025 26.2035V21.8035C50 19.2035 47.875 17.0535 45.25 17.0535ZM25 32.1285C20.525 32.1285 16.875 28.4785 16.875 24.0035C16.875 19.5285 20.525 15.8785 25 15.8785C29.475 15.8785 33.125 19.5285 33.125 24.0035C33.125 28.4785 29.475 32.1285 25 32.1285Z" fill="#292D32"/>
</svg>
