<svg width="49" height="46" viewBox="0 0 49 46" fill="none" xmlns="http://www.w3.org/2000/svg">
<path d="M38.9346 9.44926C35.1575 5.7501 29.9308 3.75676 24.5 3.83343C19.0692 3.75676 13.8629 5.7501 10.0858 9.44926C6.12499 12.9951 4.00166 17.9018 4.08333 23.0001C4.00166 28.0984 6.12499 32.9859 10.0654 36.5318C13.8425 40.2501 19.0692 42.2434 24.5 42.1668C29.9308 42.2434 35.1371 40.2501 38.9142 36.5509C42.875 33.0051 44.9983 28.0984 44.9167 23.0001C44.9983 17.9018 42.875 12.9951 38.9346 9.44926ZM34.7083 23.0001V34.5001H27.5625V24.9168H21.4375V34.5001H14.2917V23.0001H10.2083L24.5 9.58343L39.8125 23.0001H34.7083Z" fill="white"/>
</svg>
