<svg width="34" height="31" viewBox="0 0 34 31" fill="none" xmlns="http://www.w3.org/2000/svg">
<path d="M29.75 14.3505V6.45841C29.75 5.03758 28.4892 3.87508 26.9167 3.87508H20.995C20.4 2.37675 18.8417 1.29175 17 1.29175C15.1583 1.29175 13.6 2.37675 13.005 3.87508H7.08333C5.525 3.87508 4.25 5.03758 4.25 6.45841V24.5417C4.25 25.9755 5.525 27.1251 7.08333 27.1251H15.7392C17.5242 28.7267 19.9608 29.7084 22.6667 29.7084C28.1492 29.7084 32.5833 25.6655 32.5833 20.6667C32.5833 18.1997 31.5067 15.978 29.75 14.3505ZM17 3.87508C17.7792 3.87508 18.4167 4.45633 18.4167 5.16675C18.4167 5.87716 17.7792 6.45841 17 6.45841C16.2208 6.45841 15.5833 5.87716 15.5833 5.16675C15.5833 4.45633 16.2208 3.87508 17 3.87508ZM8.5 9.04175H25.5V11.6251H8.5V9.04175ZM12.8633 21.9584H8.5V19.3751H12.8633C12.7925 19.8013 12.75 20.2276 12.75 20.6667C12.75 21.1059 12.7925 21.5322 12.8633 21.9584ZM8.5 16.7917V14.2084H15.7392C14.875 14.9447 14.2233 15.823 13.7133 16.7917H8.5ZM22.6667 27.1251C18.7567 27.1251 15.5833 24.2317 15.5833 20.6667C15.5833 17.1017 18.7567 14.2084 22.6667 14.2084C26.5767 14.2084 29.75 17.1017 29.75 20.6667C29.75 24.2317 26.5767 27.1251 22.6667 27.1251ZM23.375 20.9897L27.4267 23.1726L26.3642 24.7484L21.25 21.9584V15.5001H23.375V20.9897Z" fill="white"/>
</svg>
