<svg width="38" height="34" viewBox="0 0 38 34" fill="none" xmlns="http://www.w3.org/2000/svg">
<path d="M33.1867 23.3043C33.2025 23.0917 33.25 22.8792 33.25 22.6667V23.3751L33.1867 23.3043ZM17.4167 22.6667C17.4167 23.6726 17.6542 24.6359 18.0817 25.5001H9.5V26.9167C9.5 27.6959 8.7875 28.3334 7.91667 28.3334H6.33333C5.4625 28.3334 4.75 27.6959 4.75 26.9167V15.5834L8.04333 7.08341C8.36 6.26175 9.24667 5.66675 10.2917 5.66675H27.7083C28.7533 5.66675 29.64 6.26175 29.9567 7.08341L33.25 15.5834V22.6667C33.25 18.7567 29.7033 15.5834 25.3333 15.5834C20.9633 15.5834 17.4167 18.7567 17.4167 22.6667ZM12.6667 19.1251C12.6667 17.9492 11.6058 17.0001 10.2917 17.0001C8.9775 17.0001 7.91667 17.9492 7.91667 19.1251C7.91667 20.3009 8.9775 21.2501 10.2917 21.2501C11.6058 21.2501 12.6667 20.3009 12.6667 19.1251ZM30.0833 14.1667L27.7083 7.79175H10.2917L7.91667 14.1667H30.0833ZM36.2108 30.0193L29.7033 24.1967C30.3525 22.7234 29.9883 20.9951 28.6267 19.7909C27.2017 18.5017 25.0642 18.2467 23.3383 18.9551L26.41 21.7034L24.2725 23.6301L21.1217 20.8676C20.2667 22.4117 20.6625 24.3242 22.0558 25.6134C23.4175 26.8317 25.3333 27.1434 26.9958 26.5767L33.5033 32.3851C33.7883 32.6543 34.2158 32.6543 34.5008 32.3851L36.1475 30.9259C36.4958 30.6709 36.4958 30.2176 36.2108 30.0193Z" fill="white"/>
</svg>
