<svg width="43" height="38" viewBox="0 0 43 38" fill="none" xmlns="http://www.w3.org/2000/svg">
<path d="M28.6667 9.5H10.7501L1.79175 19V23.75H5.37508C5.37508 25.0098 5.94137 26.218 6.94938 27.1088C7.95739 27.9996 9.32454 28.5 10.7501 28.5C12.1756 28.5 13.5428 27.9996 14.5508 27.1088C15.5588 26.218 16.1251 25.0098 16.1251 23.75H26.8751C26.8751 25.0098 27.4414 26.218 28.4494 27.1088C29.4574 27.9996 30.8245 28.5 32.2501 28.5C33.6756 28.5 35.0428 27.9996 36.0508 27.1088C37.0588 26.218 37.6251 25.0098 37.6251 23.75H41.2084V19C41.2084 17.2425 39.6138 15.8333 37.6251 15.8333H34.0417L28.6667 9.5ZM11.6459 11.875H18.8126V15.8333H8.06258L11.6459 11.875ZM21.5001 11.875H27.7709L31.2826 15.8333H21.5001V11.875ZM10.7501 21.375C11.4629 21.375 12.1464 21.6252 12.6504 22.0706C13.1544 22.516 13.4376 23.1201 13.4376 23.75C13.4376 24.3799 13.1544 24.984 12.6504 25.4294C12.1464 25.8748 11.4629 26.125 10.7501 26.125C10.0373 26.125 9.35374 25.8748 8.84973 25.4294C8.34573 24.984 8.06258 24.3799 8.06258 23.75C8.06258 23.1201 8.34573 22.516 8.84973 22.0706C9.35374 21.6252 10.0373 21.375 10.7501 21.375ZM32.2501 21.375C32.9629 21.375 33.6464 21.6252 34.1504 22.0706C34.6544 22.516 34.9376 23.1201 34.9376 23.75C34.9376 24.3799 34.6544 24.984 34.1504 25.4294C33.6464 25.8748 32.9629 26.125 32.2501 26.125C31.5373 26.125 30.8537 25.8748 30.3497 25.4294C29.8457 24.984 29.5626 24.3799 29.5626 23.75C29.5626 23.1201 29.8457 22.516 30.3497 22.0706C30.8537 21.6252 31.5373 21.375 32.2501 21.375Z" fill="white"/>
</svg>
