<svg width="30" height="29" viewBox="0 0 30 29" fill="none" xmlns="http://www.w3.org/2000/svg">
<path d="M15.0034 19.575C13.572 19.575 12.1991 19.0403 11.187 18.0886C10.1748 17.1368 9.60613 15.846 9.60613 14.5C9.60613 13.154 10.1748 11.8632 11.187 10.9114C12.1991 9.95969 13.572 9.425 15.0034 9.425C16.4349 9.425 17.8077 9.95969 18.8199 10.9114C19.832 11.8632 20.4007 13.154 20.4007 14.5C20.4007 15.846 19.832 17.1368 18.8199 18.0886C17.8077 19.0403 16.4349 19.575 15.0034 19.575ZM26.4611 15.9065C26.5227 15.4425 26.569 14.9785 26.569 14.5C26.569 14.0215 26.5227 13.543 26.4611 13.05L29.7148 10.6865C30.0078 10.469 30.0849 10.0775 29.8999 9.7585L26.8157 4.7415C26.6307 4.4225 26.2143 4.292 25.8751 4.4225L22.0353 5.8725C21.2334 5.307 20.4007 4.814 19.4292 4.4515L18.8586 0.609C18.7969 0.261 18.4731 0 18.0876 0H11.9192C11.5337 0 11.2099 0.261 11.1482 0.609L10.5776 4.4515C9.60613 4.814 8.7734 5.307 7.97152 5.8725L4.13174 4.4225C3.79249 4.292 3.37612 4.4225 3.19107 4.7415L0.106915 9.7585C-0.0935556 10.0775 -0.00103058 10.469 0.291965 10.6865L3.54575 13.05C3.48407 13.543 3.43781 14.0215 3.43781 14.5C3.43781 14.9785 3.48407 15.4425 3.54575 15.9065L0.291965 18.3135C-0.00103058 18.531 -0.0935556 18.9225 0.106915 19.2415L3.19107 24.2585C3.37612 24.5775 3.79249 24.6935 4.13174 24.5775L7.97152 23.113C8.7734 23.693 9.60613 24.186 10.5776 24.5485L11.1482 28.391C11.2099 28.739 11.5337 29 11.9192 29H18.0876C18.4731 29 18.7969 28.739 18.8586 28.391L19.4292 24.5485C20.4007 24.1715 21.2334 23.693 22.0353 23.113L25.8751 24.5775C26.2143 24.6935 26.6307 24.5775 26.8157 24.2585L29.8999 19.2415C30.0849 18.9225 30.0078 18.531 29.7148 18.3135L26.4611 15.9065Z" fill="white"/>
</svg>
