<svg width="34" height="39" viewBox="0 0 34 39" fill="none" xmlns="http://www.w3.org/2000/svg">
<g clip-path="url(#clip0_214_177)">
<path d="M2.83333 4.875H31.1667C32.6542 4.875 34 6.41875 34 8.125V30.875C34 32.5812 32.6542 34.125 31.1667 34.125H2.83333C1.34583 34.125 0 32.5812 0 30.875V8.125C0 6.41875 1.34583 4.875 2.83333 4.875ZM19.8333 9.75V11.375H31.1667V9.75H19.8333ZM19.8333 13V14.625H30.4583H31.1667V13H19.8333ZM19.8333 16.25V17.875H29.75V16.25H19.8333ZM11.3333 22.6038C8.5 22.6038 2.83333 24.375 2.83333 27.625V29.25H19.8333V27.625C19.8333 24.375 14.1667 22.6038 11.3333 22.6038ZM11.3333 9.75C10.2062 9.75 9.12516 10.2636 8.32813 11.1779C7.5311 12.0921 7.08333 13.3321 7.08333 14.625C7.08333 15.9179 7.5311 17.1579 8.32813 18.0721C9.12516 18.9864 10.2062 19.5 11.3333 19.5C12.4605 19.5 13.5415 18.9864 14.3385 18.0721C15.1356 17.1579 15.5833 15.9179 15.5833 14.625C15.5833 13.3321 15.1356 12.0921 14.3385 11.1779C13.5415 10.2636 12.4605 9.75 11.3333 9.75Z" fill="white"/>
</g>
<defs>
<clipPath id="clip0_214_177">
<rect width="34" height="39" fill="white"/>
</clipPath>
</defs>
</svg>
