<svg width="62" height="56" viewBox="0 0 62 56" fill="none" xmlns="http://www.w3.org/2000/svg">
<path d="M41.3333 14H15.5L2.58331 28V35H7.74998C7.74998 36.8565 8.5665 38.637 10.0199 39.9497C11.4733 41.2625 13.4446 42 15.5 42C17.5554 42 19.5267 41.2625 20.9801 39.9497C22.4335 38.637 23.25 36.8565 23.25 35H38.75C38.75 36.8565 39.5665 38.637 41.0199 39.9497C42.4733 41.2625 44.4446 42 46.5 42C48.5554 42 50.5267 41.2625 51.9801 39.9497C53.4335 38.637 54.25 36.8565 54.25 35H59.4166V28C59.4166 25.41 57.1175 23.3333 54.25 23.3333H49.0833L41.3333 14ZM16.7916 17.5H27.125V23.3333H11.625L16.7916 17.5ZM31 17.5H40.0416L45.105 23.3333H31V17.5ZM15.5 31.5C16.5277 31.5 17.5133 31.8687 18.24 32.5251C18.9667 33.1815 19.375 34.0717 19.375 35C19.375 35.9283 18.9667 36.8185 18.24 37.4749C17.5133 38.1312 16.5277 38.5 15.5 38.5C14.4723 38.5 13.4866 38.1312 12.7599 37.4749C12.0332 36.8185 11.625 35.9283 11.625 35C11.625 34.0717 12.0332 33.1815 12.7599 32.5251C13.4866 31.8687 14.4723 31.5 15.5 31.5ZM46.5 31.5C47.5277 31.5 48.5133 31.8687 49.24 32.5251C49.9667 33.1815 50.375 34.0717 50.375 35C50.375 35.9283 49.9667 36.8185 49.24 37.4749C48.5133 38.1312 47.5277 38.5 46.5 38.5C45.4723 38.5 44.4866 38.1312 43.7599 37.4749C43.0332 36.8185 42.625 35.9283 42.625 35C42.625 34.0717 43.0332 33.1815 43.7599 32.5251C44.4866 31.8687 45.4723 31.5 46.5 31.5Z" fill="black"/>
</svg>
